{
  "source": "C:\\Users\\Peter\\Desktop\\stuff\\MIUN\\quantitative_research\\video_compression\\videos\\UVG\\Bosphorus_1920x1080_120fps_420_8bit_YUV.y4m",
  "output": "C:\\Users\\Peter\\Desktop\\stuff\\MIUN\\quantitative_research\\video_compression\\compressed_videos\\UVG\\vp9\\1.5\\Bosphorus_1920x1080_120fps_420_8bit_YUV_vp9.webm",
  "codec": "vp9",
  "ok": "[yuv4mpegpipe @ 000001165d3b53c0] Stream #0: not enough frames to estimate rate; consider increasing probesize\nInput #0, yuv4mpegpipe, from 'C:\\Users\\Peter\\Desktop\\stuff\\MIUN\\quantitative_research\\video_compression\\videos\\UVG\\Bosphorus_1920x1080_120fps_420_8bit_YUV.y4m':\n  Duration: 00:00:05.00, start: 0.000000, bitrate: 2985989 kb/s\n  Stream #0:0: Video: rawvideo (I420 / 0x30323449), yuv420p(progressive), 1920x1080, 120 fps, 120 tbr, 120 tbn\n[out#0/webm @ 000001165d3b9040] Codec AVOption b:a (set bitrate (in bits/s)) has not been used for any stream. The most likely reason is either wrong type (e.g. a video option with no video streams) or that it is a private option of some decoder which was not actually used for any stream.\nStream mapping:\n  Stream #0:0 -> #0:0 (rawvideo (native) -> vp9 (libvpx-vp9))\nPress [q] to stop, [?] for help\n[libvpx-vp9 @ 000001165d3bc100] v1.15.2-100-g40561f514\nOutput #0, webm, to 'C:\\Users\\Peter\\Desktop\\stuff\\MIUN\\quantitative_research\\video_compression\\compressed_videos\\UVG\\vp9\\1.5\\Bosphorus_1920x1080_120fps_420_8bit_YUV_vp9.webm':\n  Metadata:\n    encoder         : Lavf62.3.100\n  Stream #0:0: Video: vp9, yuv420p(tv, progressive), 1920x1080, q=2-31, 1500 kb/s, 120 fps, 1k tbn\n    Metadata:\n      encoder         : Lavc62.11.100 libvpx-vp9\n    Side data:\n      cpb: bitrate max/min/avg: 0/0/0 buffer size: 1500000 vbv_delay: N/A\nframe=    0 fps=0.0 q=0.0 size=       0KiB time=N/A bitrate=N/A speed=N/A elapsed=0:00:00.55    \nframe=    4 fps=3.6 q=59.0 size=       0KiB time=00:00:00.03 bitrate= 115.4kbits/s speed=0.0299x elapsed=0:00:01.11    \nframe=    8 fps=4.9 q=53.0 size=       0KiB time=00:00:00.06 bitrate=  57.7kbits/s speed=0.0405x elapsed=0:00:01.64    \nframe=   12 fps=5.3 q=54.0 size=       0KiB time=00:00:00.10 bitrate=  38.5kbits/s speed=0.0446x elapsed=0:00:02.24    \nframe=   15 fps=5.4 q=49.0 size=       0KiB time=00:00:00.12 bitrate=  30.8kbits/s speed=0.0447x elapsed=0:00:02.79    \nframe=   19 fps=5.7 q=48.0 size=       0KiB time=00:00:00.15 bitrate=  24.3kbits/s speed=0.0473x elapsed=0:00:03.34    \nframe=   23 fps=5.9 q=50.0 size=       0KiB time=00:00:00.19 bitrate=  20.1kbits/s speed=0.0494x elapsed=0:00:03.88    \nframe=   27 fps=6.1 q=50.0 size=       0KiB time=00:00:00.22 bitrate=  17.1kbits/s speed=0.0506x elapsed=0:00:04.44    \nframe=   30 fps=6.0 q=54.0 size=       0KiB time=00:00:00.25 bitrate=  15.4kbits/s speed=0.0498x elapsed=0:00:05.02    \nframe=   34 fps=6.1 q=50.0 size=       0KiB time=00:00:00.28 bitrate=  13.6kbits/s speed=0.0511x elapsed=0:00:05.54    \nframe=   38 fps=6.3 q=53.0 size=       0KiB time=00:00:00.31 bitrate=  12.2kbits/s speed=0.0522x elapsed=0:00:06.07    \nframe=   42 fps=6.3 q=54.0 size=       0KiB time=00:00:00.35 bitrate=  11.0kbits/s speed=0.0525x elapsed=0:00:06.66    \nframe=   45 fps=6.2 q=49.0 size=       0KiB time=00:00:00.37 bitrate=  10.3kbits/s speed=0.0513x elapsed=0:00:07.31    \nframe=   49 fps=6.2 q=47.0 size=       0KiB time=00:00:00.40 bitrate=   9.4kbits/s speed=0.0517x elapsed=0:00:07.89    \nframe=   53 fps=6.2 q=50.0 size=       0KiB time=00:00:00.44 bitrate=   8.7kbits/s speed=0.0519x elapsed=0:00:08.50    \nframe=   57 fps=6.3 q=52.0 size=       0KiB time=00:00:00.47 bitrate=   8.1kbits/s speed=0.0523x elapsed=0:00:09.08    \nframe=   60 fps=6.2 q=47.0 size=       0KiB time=00:00:00.50 bitrate=   7.7kbits/s speed=0.0516x elapsed=0:00:09.69    \nframe=   63 fps=6.1 q=49.0 size=       0KiB time=00:00:00.52 bitrate=   7.3kbits/s speed=0.0507x elapsed=0:00:10.35    \nframe=   67 fps=6.1 q=50.0 size=       0KiB time=00:00:00.55 bitrate=   6.9kbits/s speed=0.0507x elapsed=0:00:11.01    \nframe=   72 fps=6.2 q=54.0 size=       0KiB time=00:00:00.60 bitrate=   6.4kbits/s speed=0.0515x elapsed=0:00:11.64    \nframe=   75 fps=6.1 q=50.0 size=       0KiB time=00:00:00.62 bitrate=   6.2kbits/s speed=0.0512x elapsed=0:00:12.21    \nframe=   79 fps=6.2 q=48.0 size=       0KiB time=00:00:00.65 bitrate=   5.8kbits/s speed=0.0516x elapsed=0:00:12.75    \nframe=   83 fps=6.2 q=51.0 size=       0KiB time=00:00:00.69 bitrate=   5.6kbits/s speed=0.0515x elapsed=0:00:13.43    \nframe=   86 fps=6.1 q=49.0 size=       0KiB time=00:00:00.71 bitrate=   5.4kbits/s speed=0.0512x elapsed=0:00:13.99    \nframe=   90 fps=6.2 q=48.0 size=       0KiB time=00:00:00.75 bitrate=   5.1kbits/s speed=0.0516x elapsed=0:00:14.54    \nframe=   93 fps=6.2 q=46.0 size=       0KiB time=00:00:00.77 bitrate=   5.0kbits/s speed=0.0513x elapsed=0:00:15.09    \nframe=   96 fps=6.1 q=48.0 size=       0KiB time=00:00:00.80 bitrate=   4.8kbits/s speed=0.0512x elapsed=0:00:15.61    \nframe=  100 fps=6.2 q=48.0 size=       0KiB time=00:00:00.83 bitrate=   4.6kbits/s speed=0.0516x elapsed=0:00:16.14    \nframe=  104 fps=6.2 q=49.0 size=       0KiB time=00:00:00.86 bitrate=   4.4kbits/s speed=0.0519x elapsed=0:00:16.68    \nframe=  107 fps=6.2 q=51.0 size=       0KiB time=00:00:00.89 bitrate=   4.3kbits/s speed=0.0518x elapsed=0:00:17.19    \nframe=  111 fps=6.3 q=51.0 size=       0KiB time=00:00:00.92 bitrate=   4.2kbits/s speed=0.0521x elapsed=0:00:17.74    \nframe=  115 fps=6.3 q=53.0 size=       0KiB time=00:00:00.95 bitrate=   4.0kbits/s speed=0.0524x elapsed=0:00:18.27    \nframe=  118 fps=6.3 q=53.0 size=       0KiB time=00:00:00.98 bitrate=   3.9kbits/s speed=0.0522x elapsed=0:00:18.83    \nframe=  122 fps=6.3 q=50.0 size=       0KiB time=00:00:01.01 bitrate=   3.8kbits/s speed=0.0525x elapsed=0:00:19.35    \nframe=  125 fps=6.3 q=50.0 size=       0KiB time=00:00:01.04 bitrate=   3.7kbits/s speed=0.0523x elapsed=0:00:19.92    \nframe=  128 fps=6.3 q=52.0 size=       0KiB time=00:00:01.06 bitrate=   3.6kbits/s speed=0.0521x elapsed=0:00:20.45    \nframe=  131 fps=6.2 q=46.0 size=     211KiB time=00:00:01.09 bitrate=1580.1kbits/s speed=0.0519x elapsed=0:00:21.02    \nframe=  136 fps=6.3 q=50.0 size=     211KiB time=00:00:01.13 bitrate=1522.0kbits/s speed=0.0524x elapsed=0:00:21.63    \nframe=  139 fps=6.3 q=51.0 size=     211KiB time=00:00:01.15 bitrate=1489.1kbits/s speed=0.0522x elapsed=0:00:22.17    \nframe=  143 fps=6.3 q=51.0 size=     211KiB time=00:00:01.19 bitrate=1447.5kbits/s speed=0.0524x elapsed=0:00:22.72    \nframe=  146 fps=6.3 q=49.0 size=     211KiB time=00:00:01.21 bitrate=1417.7kbits/s speed=0.0522x elapsed=0:00:23.28    \nframe=  150 fps=6.3 q=51.0 size=     211KiB time=00:00:01.25 bitrate=1379.9kbits/s speed=0.0524x elapsed=0:00:23.83    \nframe=  154 fps=6.3 q=52.0 size=     211KiB time=00:00:01.28 bitrate=1344.1kbits/s speed=0.0527x elapsed=0:00:24.37    \nframe=  157 fps=6.3 q=55.0 size=     211KiB time=00:00:01.30 bitrate=1318.4kbits/s speed=0.0525x elapsed=0:00:24.89    \nframe=  160 fps=6.3 q=56.0 size=     211KiB time=00:00:01.33 bitrate=1293.7kbits/s speed=0.0524x elapsed=0:00:25.43    \nframe=  163 fps=6.3 q=50.0 size=     211KiB time=00:00:01.35 bitrate=1269.9kbits/s speed=0.0523x elapsed=0:00:25.95    \nframe=  167 fps=6.3 q=52.0 size=     211KiB time=00:00:01.39 bitrate=1239.4kbits/s speed=0.0525x elapsed=0:00:26.48    \nframe=  171 fps=6.3 q=53.0 size=     211KiB time=00:00:01.42 bitrate=1210.5kbits/s speed=0.0527x elapsed=0:00:27.06    \nframe=  174 fps=6.3 q=46.0 size=     211KiB time=00:00:01.45 bitrate=1189.6kbits/s speed=0.0525x elapsed=0:00:27.61    \nframe=  177 fps=6.3 q=50.0 size=     211KiB time=00:00:01.47 bitrate=1169.4kbits/s speed=0.0523x elapsed=0:00:28.19    \nframe=  181 fps=6.3 q=53.0 size=     211KiB time=00:00:01.50 bitrate=1143.6kbits/s speed=0.0525x elapsed=0:00:28.73    \nframe=  185 fps=6.3 q=52.0 size=     211KiB time=00:00:01.54 bitrate=1118.9kbits/s speed=0.0527x elapsed=0:00:29.25    \nframe=  188 fps=6.3 q=48.0 size=     211KiB time=00:00:01.56 bitrate=1101.0kbits/s speed=0.0526x elapsed=0:00:29.80    \nframe=  191 fps=6.3 q=47.0 size=     211KiB time=00:00:01.59 bitrate=1083.7kbits/s speed=0.0524x elapsed=0:00:30.37    \nframe=  195 fps=6.3 q=50.0 size=     211KiB time=00:00:01.62 bitrate=1061.5kbits/s speed=0.0524x elapsed=0:00:31.00    \nframe=  199 fps=6.3 q=51.0 size=     211KiB time=00:00:01.65 bitrate=1040.1kbits/s speed=0.0525x elapsed=0:00:31.58    \nframe=  203 fps=6.3 q=53.0 size=     211KiB time=00:00:01.69 bitrate=1019.6kbits/s speed=0.0526x elapsed=0:00:32.13    \nframe=  206 fps=6.3 q=46.0 size=     211KiB time=00:00:01.71 bitrate=1004.8kbits/s speed=0.0525x elapsed=0:00:32.71    \nframe=  209 fps=6.3 q=50.0 size=     211KiB time=00:00:01.74 bitrate= 990.4kbits/s speed=0.0524x elapsed=0:00:33.22    \nframe=  213 fps=6.3 q=51.0 size=     211KiB time=00:00:01.77 bitrate= 971.8kbits/s speed=0.0526x elapsed=0:00:33.74    \nframe=  217 fps=6.3 q=52.0 size=     211KiB time=00:00:01.80 bitrate= 953.9kbits/s speed=0.0528x elapsed=0:00:34.27    \nframe=  220 fps=6.3 q=52.0 size=     211KiB time=00:00:01.83 bitrate= 940.9kbits/s speed=0.0527x elapsed=0:00:34.81    \nframe=  224 fps=6.3 q=48.0 size=     211KiB time=00:00:01.86 bitrate= 924.1kbits/s speed=0.0528x elapsed=0:00:35.36    \nframe=  227 fps=6.3 q=48.0 size=     211KiB time=00:00:01.89 bitrate= 911.8kbits/s speed=0.0527x elapsed=0:00:35.88    \nframe=  231 fps=6.3 q=48.0 size=     211KiB time=00:00:01.92 bitrate= 896.0kbits/s speed=0.0528x elapsed=0:00:36.46    \nframe=  234 fps=6.3 q=40.0 size=     211KiB time=00:00:01.94 bitrate= 888.4kbits/s speed=0.0525x elapsed=0:00:37.01    \nframe=  237 fps=6.3 q=47.0 size=     211KiB time=00:00:01.97 bitrate= 873.4kbits/s speed=0.0525x elapsed=0:00:37.59    \nframe=  241 fps=6.3 q=51.0 size=     211KiB time=00:00:02.00 bitrate= 858.9kbits/s speed=0.0527x elapsed=0:00:38.13    \nframe=  244 fps=6.3 q=49.0 size=     211KiB time=00:00:02.03 bitrate= 848.3kbits/s speed=0.0525x elapsed=0:00:38.73    \nframe=  248 fps=6.3 q=49.0 size=     211KiB time=00:00:02.06 bitrate= 834.6kbits/s speed=0.0526x elapsed=0:00:39.32    \nframe=  251 fps=6.3 q=43.0 size=     211KiB time=00:00:02.09 bitrate= 824.7kbits/s speed=0.0525x elapsed=0:00:39.84    \nframe=  255 fps=6.3 q=49.0 size=     211KiB time=00:00:02.12 bitrate= 811.7kbits/s speed=0.0526x elapsed=0:00:40.37    \nframe=  258 fps=6.3 q=50.0 size=     256KiB time=00:00:02.15 bitrate= 975.4kbits/s speed=0.0525x elapsed=0:00:40.92    \nframe=  263 fps=6.3 q=50.0 size=     256KiB time=00:00:02.19 bitrate= 956.9kbits/s speed=0.0528x elapsed=0:00:41.51    \nframe=  266 fps=6.3 q=48.0 size=     256KiB time=00:00:02.21 bitrate= 946.1kbits/s speed=0.0527x elapsed=0:00:42.04    \nframe=  269 fps=6.3 q=51.0 size=     256KiB time=00:00:02.24 bitrate= 935.5kbits/s speed=0.0527x elapsed=0:00:42.55    \nframe=  272 fps=6.3 q=52.0 size=     256KiB time=00:00:02.26 bitrate= 925.2kbits/s speed=0.0526x elapsed=0:00:43.08    \nframe=  275 fps=6.3 q=49.0 size=     256KiB time=00:00:02.29 bitrate= 915.1kbits/s speed=0.0526x elapsed=0:00:43.60    \nframe=  278 fps=6.3 q=42.0 size=     256KiB time=00:00:02.31 bitrate= 905.2kbits/s speed=0.0525x elapsed=0:00:44.12    \nframe=  283 fps=6.3 q=52.0 size=     256KiB time=00:00:02.35 bitrate= 889.3kbits/s speed=0.0528x elapsed=0:00:44.68    \nframe=  286 fps=6.3 q=53.0 size=     256KiB time=00:00:02.38 bitrate= 879.9kbits/s speed=0.0527x elapsed=0:00:45.24    \nframe=  290 fps=6.3 q=50.0 size=     256KiB time=00:00:02.41 bitrate= 867.8kbits/s speed=0.0527x elapsed=0:00:45.82    \nframe=  293 fps=6.3 q=51.0 size=     256KiB time=00:00:02.44 bitrate= 858.9kbits/s speed=0.0527x elapsed=0:00:46.34    \nframe=  297 fps=6.3 q=51.0 size=     256KiB time=00:00:02.47 bitrate= 847.3kbits/s speed=0.0528x elapsed=0:00:46.86    \nframe=  300 fps=6.3 q=52.0 size=     256KiB time=00:00:02.50 bitrate= 838.9kbits/s speed=0.0527x elapsed=0:00:47.41    \nframe=  304 fps=6.3 q=52.0 size=     256KiB time=00:00:02.53 bitrate= 827.8kbits/s speed=0.0528x elapsed=0:00:47.93    \nframe=  308 fps=6.3 q=48.0 size=     256KiB time=00:00:02.56 bitrate= 817.1kbits/s speed=0.0529x elapsed=0:00:48.50    \nframe=  312 fps=6.4 q=51.0 size=     256KiB time=00:00:02.60 bitrate= 806.6kbits/s speed=0.0529x elapsed=0:00:49.10    \nframe=  315 fps=6.3 q=48.0 size=     256KiB time=00:00:02.62 bitrate= 798.9kbits/s speed=0.0529x elapsed=0:00:49.65    \nframe=  319 fps=6.4 q=50.0 size=     256KiB time=00:00:02.65 bitrate= 788.9kbits/s speed=0.053x elapsed=0:00:50.19    \nframe=  324 fps=6.4 q=49.0 size=     256KiB time=00:00:02.69 bitrate= 779.1kbits/s speed=0.053x elapsed=0:00:50.79    \nframe=  327 fps=6.4 q=43.0 size=     256KiB time=00:00:02.72 bitrate= 769.6kbits/s speed=0.053x elapsed=0:00:51.36    \nframe=  331 fps=6.4 q=49.0 size=     256KiB time=00:00:02.75 bitrate= 760.3kbits/s speed=0.0532x elapsed=0:00:51.88    \nframe=  335 fps=6.4 q=52.0 size=     256KiB time=00:00:02.79 bitrate= 751.2kbits/s speed=0.0532x elapsed=0:00:52.48    \nframe=  339 fps=6.4 q=50.0 size=     256KiB time=00:00:02.81 bitrate= 744.6kbits/s speed=0.0531x elapsed=0:00:53.01    \nframe=  342 fps=6.4 q=51.0 size=     256KiB time=00:00:02.85 bitrate= 735.8kbits/s speed=0.0532x elapsed=0:00:53.59    \nframe=  346 fps=6.4 q=51.0 size=     256KiB time=00:00:02.88 bitrate= 727.3kbits/s speed=0.0532x elapsed=0:00:54.16    \nframe=  350 fps=6.4 q=48.0 size=     256KiB time=00:00:02.91 bitrate= 719.0kbits/s speed=0.0533x elapsed=0:00:54.76    \nframe=  354 fps=6.4 q=51.0 size=     256KiB time=00:00:02.95 bitrate= 710.9kbits/s speed=0.0533x elapsed=0:00:55.31    \nframe=  358 fps=6.4 q=49.0 size=     256KiB time=00:00:02.98 bitrate= 703.0kbits/s speed=0.0534x elapsed=0:00:55.89    \nframe=  362 fps=6.4 q=43.0 size=     256KiB time=00:00:03.00 bitrate= 697.1kbits/s speed=0.0533x elapsed=0:00:56.48    \nframe=  366 fps=6.4 q=49.0 size=     256KiB time=00:00:03.05 bitrate= 687.6kbits/s speed=0.0535x elapsed=0:00:57.04    \nframe=  370 fps=6.4 q=52.0 size=     256KiB time=00:00:03.08 bitrate= 680.2kbits/s speed=0.0535x elapsed=0:00:57.59    \nframe=  374 fps=6.4 q=50.0 size=     256KiB time=00:00:03.11 bitrate= 672.9kbits/s speed=0.0536x elapsed=0:00:58.16    \nframe=  377 fps=6.4 q=50.0 size=     256KiB time=00:00:03.14 bitrate= 667.5kbits/s speed=0.0535x elapsed=0:00:58.70    \nframe=  381 fps=6.4 q=51.0 size=     256KiB time=00:00:03.17 bitrate= 660.5kbits/s speed=0.0536x elapsed=0:00:59.26    \nframe=  384 fps=6.4 q=49.0 size=     256KiB time=00:00:03.20 bitrate= 655.4kbits/s speed=0.0535x elapsed=0:00:59.82    \nframe=  388 fps=6.4 q=49.0 size=     512KiB time=00:00:03.23 bitrate=1297.2kbits/s speed=0.0536x elapsed=0:01:00.36    \nframe=  393 fps=6.5 q=49.0 size=     512KiB time=00:00:03.27 bitrate=1280.7kbits/s speed=0.0538x elapsed=0:01:00.89    \nframe=  396 fps=6.4 q=48.0 size=     512KiB time=00:00:03.30 bitrate=1271.0kbits/s speed=0.0537x elapsed=0:01:01.43    \nframe=  400 fps=6.5 q=49.0 size=     512KiB time=00:00:03.32 bitrate=1261.4kbits/s speed=0.0537x elapsed=0:01:01.94    \nframe=  404 fps=6.5 q=49.0 size=     512KiB time=00:00:03.36 bitrate=1245.8kbits/s speed=0.0538x elapsed=0:01:02.53    \nframe=  408 fps=6.5 q=52.0 size=     512KiB time=00:00:03.39 bitrate=1236.6kbits/s speed=0.0538x elapsed=0:01:03.08    \nframe=  411 fps=6.5 q=47.0 size=     512KiB time=00:00:03.42 bitrate=1224.6kbits/s speed=0.0538x elapsed=0:01:03.68    \nframe=  416 fps=6.5 q=52.0 size=     512KiB time=00:00:03.45 bitrate=1212.8kbits/s speed=0.0538x elapsed=0:01:04.24    \nframe=  420 fps=6.5 q=53.0 size=     512KiB time=00:00:03.50 bitrate=1198.4kbits/s speed=0.054x elapsed=0:01:04.85    \nframe=  423 fps=6.5 q=52.0 size=     512KiB time=00:00:03.52 bitrate=1189.9kbits/s speed=0.0539x elapsed=0:01:05.42    \nframe=  426 fps=6.5 q=48.0 size=     512KiB time=00:00:03.55 bitrate=1181.5kbits/s speed=0.0538x elapsed=0:01:05.97    \nframe=  431 fps=6.5 q=51.0 size=     512KiB time=00:00:03.58 bitrate=1170.5kbits/s speed=0.0539x elapsed=0:01:06.49    \nframe=  435 fps=6.5 q=53.0 size=     512KiB time=00:00:03.62 bitrate=1157.0kbits/s speed=0.0541x elapsed=0:01:07.04    \nframe=  439 fps=6.5 q=47.0 size=     512KiB time=00:00:03.65 bitrate=1146.5kbits/s speed=0.0541x elapsed=0:01:07.56    \nframe=  444 fps=6.5 q=50.0 size=     512KiB time=00:00:03.69 bitrate=1136.2kbits/s speed=0.0542x elapsed=0:01:08.13    \nframe=  447 fps=6.5 q=50.0 size=     512KiB time=00:00:03.72 bitrate=1126.0kbits/s speed=0.0541x elapsed=0:01:08.83    \nframe=  450 fps=6.5 q=51.0 size=     512KiB time=00:00:03.75 bitrate=1118.5kbits/s speed=0.054x elapsed=0:01:09.38    \nframe=  453 fps=6.5 q=52.0 size=     512KiB time=00:00:03.77 bitrate=1111.1kbits/s speed=0.054x elapsed=0:01:09.92    \nframe=  457 fps=6.5 q=49.0 size=     512KiB time=00:00:03.80 bitrate=1101.3kbits/s speed=0.054x elapsed=0:01:10.51    \nframe=  460 fps=6.5 q=50.0 size=     512KiB time=00:00:03.83 bitrate=1094.2kbits/s speed=0.054x elapsed=0:01:11.05    \nframe=  464 fps=6.5 q=50.0 size=     512KiB time=00:00:03.86 bitrate=1084.7kbits/s speed=0.054x elapsed=0:01:11.61    \nframe=  466 fps=6.5 q=50.0 size=     512KiB time=00:00:03.88 bitrate=1080.1kbits/s speed=0.0538x elapsed=0:01:12.15    \nframe=  469 fps=6.5 q=46.0 size=     512KiB time=00:00:03.90 bitrate=1073.2kbits/s speed=0.0538x elapsed=0:01:12.67    \nframe=  474 fps=6.5 q=51.0 size=     512KiB time=00:00:03.94 bitrate=1064.1kbits/s speed=0.0538x elapsed=0:01:13.22    \nframe=  478 fps=6.5 q=53.0 size=     512KiB time=00:00:03.98 bitrate=1053.0kbits/s speed=0.0539x elapsed=0:01:13.84    \nframe=  481 fps=6.5 q=49.0 size=     512KiB time=00:00:04.00 bitrate=1046.4kbits/s speed=0.0539x elapsed=0:01:14.38    \nframe=  484 fps=6.5 q=47.0 size=     512KiB time=00:00:04.02 bitrate=1042.1kbits/s speed=0.0537x elapsed=0:01:14.97    \nframe=  487 fps=6.4 q=49.0 size=     512KiB time=00:00:04.05 bitrate=1035.6kbits/s speed=0.0536x elapsed=0:01:15.55    \nframe=  490 fps=6.4 q=50.0 size=     512KiB time=00:00:04.08 bitrate=1027.2kbits/s speed=0.0536x elapsed=0:01:16.19    \nframe=  493 fps=6.4 q=51.0 size=     512KiB time=00:00:04.10 bitrate=1020.9kbits/s speed=0.0535x elapsed=0:01:16.73    \nframe=  496 fps=6.4 q=51.0 size=     512KiB time=00:00:04.13 bitrate=1014.8kbits/s speed=0.0535x elapsed=0:01:17.30    \nframe=  500 fps=6.4 q=51.0 size=     512KiB time=00:00:04.16 bitrate=1006.6kbits/s speed=0.0535x elapsed=0:01:17.89    \nframe=  504 fps=6.4 q=53.0 size=     512KiB time=00:00:04.19 bitrate=1000.6kbits/s speed=0.0534x elapsed=0:01:18.48    \nframe=  506 fps=6.4 q=54.0 size=     512KiB time=00:00:04.21 bitrate= 994.7kbits/s speed=0.0533x elapsed=0:01:19.06    \nframe=  510 fps=6.4 q=52.0 size=     512KiB time=00:00:04.25 bitrate= 986.9kbits/s speed=0.0534x elapsed=0:01:19.60    \nframe=  512 fps=6.4 q=54.0 size=     512KiB time=00:00:04.26 bitrate= 983.0kbits/s speed=0.0532x elapsed=0:01:20.17    \nframe=  517 fps=6.4 q=48.0 size=     768KiB time=00:00:04.30 bitrate=1463.1kbits/s speed=0.0532x elapsed=0:01:20.75    \nframe=  521 fps=6.4 q=50.0 size=     768KiB time=00:00:04.34 bitrate=1449.1kbits/s speed=0.0533x elapsed=0:01:21.38    \nframe=  526 fps=6.4 q=52.0 size=     768KiB time=00:00:04.38 bitrate=1435.3kbits/s speed=0.0535x elapsed=0:01:21.91    \nframe=  531 fps=6.4 q=50.0 size=     768KiB time=00:00:04.42 bitrate=1421.8kbits/s speed=0.0537x elapsed=0:01:22.45    \nframe=  534 fps=6.4 q=51.0 size=     768KiB time=00:00:04.45 bitrate=1413.8kbits/s speed=0.0536x elapsed=0:01:22.98    \nframe=  539 fps=6.5 q=49.0 size=     768KiB time=00:00:04.49 bitrate=1400.7kbits/s speed=0.0538x elapsed=0:01:23.55    \nframe=  543 fps=6.5 q=53.0 size=     768KiB time=00:00:04.52 bitrate=1390.4kbits/s speed=0.0538x elapsed=0:01:24.12    \nframe=  548 fps=6.5 q=51.0 size=     768KiB time=00:00:04.56 bitrate=1377.7kbits/s speed=0.0539x elapsed=0:01:24.68    \nframe=  552 fps=6.5 q=50.0 size=     768KiB time=00:00:04.60 bitrate=1367.7kbits/s speed=0.054x elapsed=0:01:25.24    \nframe=  556 fps=6.5 q=44.0 size=     768KiB time=00:00:04.63 bitrate=1357.9kbits/s speed=0.054x elapsed=0:01:25.76    \nframe=  561 fps=6.5 q=52.0 size=     768KiB time=00:00:04.66 bitrate=1348.2kbits/s speed=0.0541x elapsed=0:01:26.33    \nframe=  565 fps=6.5 q=48.0 size=     768KiB time=00:00:04.70 bitrate=1336.2kbits/s speed=0.0542x elapsed=0:01:26.90    \nframe=  570 fps=6.5 q=44.0 size=     768KiB time=00:00:04.75 bitrate=1324.5kbits/s speed=0.0543x elapsed=0:01:27.43    \nframe=  575 fps=6.5 q=52.0 size=     768KiB time=00:00:04.79 bitrate=1313.0kbits/s speed=0.0545x elapsed=0:01:27.97    \nframe=  576 fps=6.5 q=52.0 size=     768KiB time=00:00:04.80 bitrate=1310.7kbits/s speed=0.0542x elapsed=0:01:28.52    \nframe=  576 fps=6.5 q=52.0 size=     768KiB time=00:00:04.80 bitrate=1310.7kbits/s speed=0.0539x elapsed=0:01:29.07    \nframe=  576 fps=6.4 q=52.0 size=     768KiB time=00:00:04.80 bitrate=1310.7kbits/s speed=0.0535x elapsed=0:01:29.67    \nframe=  576 fps=6.4 q=52.0 size=     768KiB time=00:00:04.80 bitrate=1310.7kbits/s speed=0.0532x elapsed=0:01:30.20    \n[out#0/webm @ 000001165d3b9040] video:1088KiB audio:0KiB subtitle:0KiB other streams:0KiB global headers:0KiB muxing overhead: 0.433977%\nframe=  600 fps=6.6 q=49.0 Lsize=    1093KiB time=00:00:05.00 bitrate=1790.7kbits/s speed=0.0551x elapsed=0:01:30.67    \n",
  "seconds": 90.93163633346558,
  "probe_out": {}
}